<svg width="83" height="83" viewBox="0 0 83 83" fill="none" xmlns="http://www.w3.org/2000/svg">
<g clip-path="url(#clip0_103_2174)">
<path fill-rule="evenodd" clip-rule="evenodd" d="M59.6929 31.2261C60.0308 29.1804 60.2249 27.894 60.2679 27.3571C60.3108 26.8203 60.174 26.376 59.85 26.0151C59.5257 25.6542 59.0264 25.4689 58.3685 25.4689C57.8202 25.4689 57.3344 25.6449 56.9214 25.9873C56.5085 26.3298 56.2249 26.774 56.08 27.3202C55.9365 27.8571 55.7378 28.9491 55.4656 30.5967L54.3098 37.594C55.0523 36.4186 56.0108 35.5394 57.1776 34.9468C58.3431 34.3639 59.717 34.0676 61.2886 34.0676C63.2713 34.0676 64.9265 34.6136 66.2644 35.6966C67.6023 36.7795 68.3463 38.0846 68.5067 39.6025C68.6672 41.1205 68.5381 43.1753 68.1114 45.7577L67.5335 49.2564C67.026 52.3294 66.5297 54.6153 66.0537 56.115C65.5685 57.6144 64.7177 59.0027 63.5016 60.28C62.2871 61.5481 60.7345 62.5384 58.8624 63.2511C56.992 63.9545 54.8779 64.3063 52.5477 64.3063C49.6329 64.3063 47.3153 63.899 45.595 63.0845C43.8745 62.2699 42.6327 61.1037 41.8798 59.5765C41.1269 58.0494 40.7989 56.4389 40.9111 54.7636C41.0158 53.0791 41.4732 49.8118 42.2726 44.9709L43.2756 38.8991C44.1392 33.6696 44.7888 30.1801 45.2359 28.4122C45.6725 26.6537 46.5692 24.9877 47.9163 23.4142C49.2728 21.8408 50.9486 20.656 52.9595 19.8785C54.9717 19.0917 57.2122 18.6937 59.6793 18.6937C62.7129 18.6937 65.1159 19.1935 66.8986 20.1839C68.6796 21.1836 69.8377 22.5812 70.3802 24.3861C70.9213 26.2002 70.9656 28.477 70.5117 31.2261H59.6929ZM35.0151 63.464L36.2518 55.9759H24.3915C31.9599 46.8869 36.5979 40.9354 38.3022 38.1401C39.999 35.3355 41.0591 32.6791 41.4749 30.1615C42.0208 26.8572 41.3751 24.1269 39.5216 21.9609C37.6758 19.8044 34.6017 18.7214 30.2979 18.7214C28.105 18.7214 26.1645 19.0732 24.4766 19.7766C22.7888 20.48 21.346 21.526 20.1328 22.8959C18.9275 24.2748 18.0843 25.6726 17.5945 27.0887C17.114 28.5048 16.6651 30.4486 16.2599 32.9013L15.9954 34.5026H25.6903L26.3798 30.3281C26.6992 28.3938 27.1143 27.0978 27.6233 26.4499C28.1323 25.802 28.7996 25.4689 29.6128 25.4689C30.4352 25.4689 30.9985 25.765 31.3027 26.3576C31.6085 26.9405 31.6627 27.8291 31.4656 29.0231C31.2087 30.5781 30.1839 32.7439 28.4004 35.5208C26.6076 38.2974 21.2289 45.5263 12.247 57.1978L11.212 63.464H35.0151ZM57.4319 44.9154C57.6887 43.3604 57.7002 42.2959 57.4492 41.7129C57.2058 41.1389 56.705 40.8521 55.9374 40.8521C55.1881 40.8521 54.5956 41.1205 54.1567 41.6758C53.7175 42.2311 53.3668 43.3049 53.1007 44.9154L51.7892 52.857C51.4697 54.7913 51.4246 56.0594 51.6543 56.6609C51.8854 57.2533 52.3847 57.5496 53.1523 57.5496C53.6183 57.5496 54.1317 57.3181 54.7092 56.8646C55.2882 56.4018 55.7396 55.1616 56.0744 53.1346L57.4319 44.9154Z" fill="url(#paint0_linear_103_2174)"/>
<path fill-rule="evenodd" clip-rule="evenodd" d="M23.9701 41.0759C23.9701 41.0759 24.0936 39.0852 21.3233 39.3147C18.553 39.5443 1.8824 39.879 1.8824 39.879L8.27166 44.638L2.99273e-05 50.9456L12.1817 50.0294L23.97 41.0759L23.9701 41.0759Z" fill="url(#paint1_linear_103_2174)"/>
<path fill-rule="evenodd" clip-rule="evenodd" d="M69.848 40.7985L80.2826 39.7903L74.0485 46.5625L82.0882 51.0587L70.1054 53.8476C70.1054 53.8476 68.4459 54.0628 67.4958 53.3908C66.9258 52.9876 66.5604 52.2018 66.6652 51.0628C66.8257 49.3194 68.0896 46.9192 68.7217 44.719L69.848 40.7985L69.848 40.7985L69.848 40.7985Z" fill="url(#paint2_linear_103_2174)"/>
<path fill-rule="evenodd" clip-rule="evenodd" d="M22.0173 43.4126C22.0173 43.4126 16.8395 44.659 16.4935 43.2903C16.1601 41.9713 20.4855 40.8765 23.9701 41.0759C23.9701 41.0759 21.9768 43.447 22.0173 43.4126V43.4126Z" fill="#322073"/>
<path fill-rule="evenodd" clip-rule="evenodd" d="M66.6652 51.0628L68.4591 51.2197C68.4591 51.2197 70.0666 51.3037 70.5213 49.5515C70.9761 47.7993 69.6025 47.605 69.5084 47.5774C69.4374 47.5566 68.9351 47.457 68.4083 47.4588C67.8116 47.4608 67.1887 47.5731 67.1887 47.5687L66.6653 51.0628L66.6652 51.0628Z" fill="#322073"/>
<path fill-rule="evenodd" clip-rule="evenodd" d="M16.4935 43.2903L7.13234 54.729C7.13234 54.729 8.14567 57.1525 12.168 56.483C14.386 56.1138 32.2725 52.9494 45.3097 50.8443C58.3469 48.7392 67.2602 47.5749 67.2602 47.5749C67.2602 47.5749 71.0313 46.7894 70.5918 49.2943C70.8143 46.7515 69.361 37.4299 69.361 37.4299C69.361 37.4299 69.4025 35.3572 65.3503 35.8521C61.2982 36.347 21.535 43.4644 21.535 43.4644C21.535 43.4644 17.2755 44.2342 16.4933 43.2903L16.4934 43.2902L16.4935 43.2903Z" fill="url(#paint3_linear_103_2174)"/>
<path fill-rule="evenodd" clip-rule="evenodd" d="M61.8613 45.0032L61.8775 45.5316C62.0078 45.5547 62.1271 45.5573 62.2368 45.5379C62.4174 45.506 62.5761 45.4339 62.715 45.3225C62.8528 45.2112 62.9799 45.0524 63.0976 44.8448C63.185 44.6909 63.3139 44.416 63.4829 44.0191L65.0564 40.3452L64.4899 40.4454L63.6022 42.5481C63.4899 42.8159 63.3899 43.0868 63.3013 43.3621C63.2544 43.1001 63.1957 42.8529 63.1282 42.6189L62.6033 40.7791L61.9929 40.8868L62.9639 44.0603C62.9361 44.1264 62.9148 44.1754 62.9013 44.2099C62.8018 44.4517 62.7324 44.6045 62.6908 44.6677C62.6356 44.7539 62.5692 44.8234 62.4892 44.8795C62.4103 44.9351 62.3073 44.9749 62.1814 44.9972C62.0891 45.0135 61.9832 45.0151 61.8613 45.0032ZM61.394 43.3281L60.8147 43.3586C60.7074 43.6169 60.5757 43.8139 60.4191 43.9501C60.262 44.0874 60.0796 44.1743 59.8724 44.211C59.5927 44.2604 59.3693 44.2022 59.1996 44.0368C59.0298 43.8727 58.9504 43.6056 58.9627 43.2363L61.4566 42.7956C61.4648 42.7273 61.4702 42.676 61.4732 42.6412C61.5221 42.082 61.4182 41.6722 61.1615 41.4137C60.9057 41.1553 60.5538 41.0652 60.1067 41.1442C59.6443 41.226 59.2555 41.4503 58.9377 41.8166C58.6209 42.1828 58.4372 42.651 58.3873 43.2222C58.339 43.7737 58.4444 44.1768 58.7046 44.4313C58.964 44.6861 59.3386 44.7701 59.8276 44.6836C60.2158 44.6148 60.5435 44.4625 60.8105 44.2276C61.0767 43.9915 61.2712 43.6921 61.394 43.3281ZM60.7446 41.8244C60.8494 41.9454 60.9025 42.1475 60.9025 42.4276L59.0354 42.7576C59.0804 42.4588 59.199 42.205 59.3919 41.9971C59.5846 41.7892 59.8116 41.6621 60.0717 41.6161C60.3588 41.5654 60.5834 41.6351 60.7446 41.8244ZM54.8433 45.4896L55.14 42.0984L55.6496 42.0082L55.6074 42.49C55.8863 42.0738 56.2573 41.8246 56.7204 41.7426C56.9227 41.707 57.1043 41.7114 57.2666 41.7547C57.4299 41.7987 57.5474 41.8724 57.6207 41.9774C57.6952 42.0814 57.7409 42.2127 57.761 42.3701C57.7721 42.4734 57.7665 42.658 57.7432 42.9238L57.5607 45.0091L56.9933 45.1093L57.1737 43.0459C57.1942 42.8128 57.1881 42.641 57.1542 42.5322C57.1201 42.4245 57.0499 42.3456 56.9441 42.2969C56.8373 42.2468 56.7093 42.2352 56.5576 42.262C56.3157 42.3047 56.1015 42.4199 55.9116 42.6057C55.7228 42.7927 55.6099 43.1025 55.5718 43.5373L55.4098 45.3893L54.8433 45.4896ZM52.6891 45.8704L52.9857 42.4792L53.4955 42.3892L53.4506 42.9026C53.6016 42.6397 53.7357 42.4593 53.8532 42.3635C53.9695 42.2678 54.0945 42.207 54.2266 42.1837C54.418 42.1497 54.6061 42.1776 54.7931 42.266L54.5507 42.8347C54.4204 42.775 54.2854 42.7582 54.1469 42.7826C54.0221 42.8047 53.9082 42.8624 53.8026 42.9552C53.697 43.049 53.618 43.166 53.5644 43.3073C53.4831 43.5224 53.4322 43.7515 53.4109 43.9946L53.2555 45.7702L52.6891 45.8704ZM42.731 46.2475L42.173 46.4212C42.1236 46.8894 42.196 47.222 42.3904 47.4206C42.5858 47.6189 42.8849 47.6819 43.2904 47.6103C43.5633 47.5621 43.8058 47.4632 44.0188 47.3153C44.2307 47.166 44.3935 46.9765 44.5057 46.745C44.618 46.5139 44.6909 46.2015 44.7251 45.8101L45.0042 42.6196L44.3937 42.7275L44.1116 45.9529C44.0881 46.2213 44.0495 46.4201 43.9967 46.5508C43.9443 46.6802 43.8593 46.7906 43.7414 46.8814C43.6243 46.9728 43.4892 47.0311 43.3354 47.0583C43.128 47.095 42.9713 47.0581 42.8647 46.9471C42.759 46.8361 42.7139 46.6024 42.731 46.2475ZM51.3003 46.1159L51.3439 45.6177C51.049 46.0475 50.6789 46.3008 50.2316 46.3799C50.035 46.4148 49.8532 46.4093 49.6891 46.3631C49.5248 46.3171 49.4064 46.2426 49.3338 46.1417C49.2601 46.0398 49.2146 45.9082 49.1958 45.7462C49.1832 45.6371 49.187 45.4604 49.2085 45.215L49.3922 43.1145L49.9588 43.0143L49.7943 44.8946C49.7679 45.1957 49.7622 45.395 49.7756 45.4958C49.7988 45.6407 49.8637 45.7451 49.9713 45.8121C50.0797 45.8777 50.219 45.8948 50.3888 45.8649C50.5587 45.8348 50.7216 45.7632 50.8788 45.6486C51.0359 45.5337 51.1517 45.3941 51.2262 45.2318C51.3021 45.068 51.3524 44.8413 51.3777 44.5525L51.5367 42.7354L52.1032 42.6351L51.8066 46.0263L51.3003 46.1159ZM39.1046 45.3733L38.847 48.3175L39.4113 48.2177L39.6689 45.2734L40.3203 45.1584L40.3594 44.7115L39.7081 44.8267L39.7355 44.5136C39.7534 44.3088 39.8009 44.1631 39.8795 44.0762C39.957 43.9884 40.0817 43.9298 40.2537 43.8995C40.3591 43.8809 40.47 43.8718 40.5853 43.873L40.714 43.3568C40.5239 43.3517 40.3492 43.3643 40.1902 43.3924C39.9419 43.4364 39.7453 43.5161 39.5996 43.633C39.4541 43.75 39.3477 43.888 39.2798 44.047C39.2304 44.164 39.1952 44.3378 39.1753 44.5657L39.1437 44.9264L38.6439 45.0147L38.6047 45.4616L39.1046 45.3733ZM46.097 43.9922C45.7256 44.3552 45.5128 44.851 45.4579 45.479C45.4077 46.0522 45.5134 46.465 45.7761 46.7178C46.0386 46.9721 46.4036 47.0566 46.8713 46.9739C47.1637 46.9223 47.4383 46.8062 47.6977 46.624C47.956 46.4421 48.161 46.2147 48.312 45.9412C48.4629 45.6688 48.5574 45.314 48.5956 44.8769C48.6427 44.3384 48.5346 43.9422 48.2689 43.6887C48.0042 43.4338 47.6415 43.3478 47.1814 43.4292C46.7676 43.5023 46.4061 43.6909 46.097 43.9922ZM46.0406 45.376C46.0025 45.8111 46.0676 46.1192 46.2358 46.3019C46.404 46.486 46.6298 46.552 46.9126 46.5022C47.1942 46.4524 47.4381 46.3019 47.6441 46.052C47.8491 45.8021 47.9715 45.4542 48.0104 45.0096C48.0471 44.5899 47.9815 44.288 47.8123 44.1054C47.6431 43.9229 47.4191 43.8561 47.1397 43.9057C46.857 43.9556 46.6122 44.1053 46.4063 44.353C46.2005 44.6007 46.0785 44.9423 46.0406 45.376ZM35.062 47.3168C35.117 46.689 35.3298 46.1931 35.7011 45.8302C36.0102 45.5288 36.3717 45.3402 36.7855 45.2672C37.2456 45.1858 37.6083 45.272 37.873 45.5266C38.1387 45.7802 38.2468 46.1765 38.1997 46.7149C38.1615 47.1519 38.067 47.5068 37.9162 47.7792C37.7651 48.0528 37.5601 48.2799 37.3018 48.4621C37.0424 48.6441 36.7678 48.7602 36.4753 48.8119C36.0077 48.8946 35.6427 48.8099 35.3801 48.556C35.1175 48.3029 35.0119 47.8902 35.062 47.3168ZM35.6447 47.2138C35.6066 47.6488 35.6716 47.957 35.8399 48.1397C36.008 48.3237 36.2339 48.3902 36.5167 48.34C36.7982 48.2902 37.0421 48.1397 37.2481 47.89C37.4531 47.6401 37.5756 47.2921 37.6145 46.8474C37.6512 46.4277 37.5855 46.126 37.4163 45.9432C37.2471 45.7608 37.0232 45.694 36.7438 45.7435C36.4611 45.7935 36.2163 45.9429 36.0104 46.1908C35.8045 46.4387 35.6826 46.7801 35.6447 47.2138ZM30.5382 48.7015L29.9703 48.8897C30.0011 49.2385 30.1225 49.4843 30.3343 49.627C30.5462 49.77 30.8693 49.803 31.3047 49.726C31.567 49.6796 31.8064 49.5921 32.0219 49.4629C32.2375 49.3335 32.4081 49.1746 32.5336 48.9861C32.658 48.7967 32.7297 48.6069 32.7465 48.415C32.7637 48.2188 32.7328 48.0632 32.654 47.9475C32.5754 47.8316 32.4595 47.7522 32.3063 47.7115C32.1544 47.6698 31.8827 47.6309 31.4913 47.5928C31.2207 47.5654 31.0583 47.5459 31.0031 47.5353C30.9078 47.5114 30.8402 47.4739 30.7994 47.4199C30.7584 47.3681 30.7406 47.306 30.7472 47.2306C30.7574 47.1141 30.8223 47.0017 30.9418 46.8947C31.0601 46.7879 31.2497 46.7116 31.51 46.6654C31.7303 46.6265 31.897 46.6455 32.0088 46.7222C32.1206 46.799 32.1818 46.9223 32.1923 47.0922L32.7526 46.9168C32.7364 46.7041 32.6872 46.5411 32.6041 46.4259C32.5209 46.312 32.3838 46.234 32.1916 46.193C31.9995 46.1517 31.7729 46.1532 31.5106 46.1997C31.3364 46.2304 31.1711 46.2822 31.0143 46.3549C30.8589 46.4275 30.7334 46.5055 30.6396 46.5865C30.515 46.6922 30.4122 46.8155 30.333 46.9573C30.2531 47.0981 30.2063 47.2436 30.1931 47.3953C30.1786 47.5607 30.2073 47.7049 30.2781 47.8277C30.3489 47.9502 30.4618 48.0366 30.6153 48.0857C30.7686 48.1359 31.0497 48.1762 31.4554 48.2098C31.7571 48.2337 31.9448 48.2637 32.0178 48.3013C32.1228 48.3568 32.1701 48.4482 32.1587 48.5791C32.1461 48.7228 32.0714 48.8606 31.9362 48.9908C31.8011 49.1199 31.6028 49.2086 31.3428 49.2546C31.0837 49.3004 30.888 49.2749 30.7557 49.1792C30.6223 49.0824 30.5495 48.9236 30.5382 48.7015ZM28.7606 46.7622L28.2509 46.8522L27.9542 50.2433L28.5207 50.1431L28.6761 48.3674C28.6973 48.1242 28.7482 47.8955 28.8295 47.6802C28.883 47.5388 28.9621 47.4219 29.0677 47.3281C29.1733 47.2353 29.2872 47.1775 29.412 47.1556C29.5505 47.1309 29.6857 47.1481 29.8158 47.2076L30.0581 46.6389C29.8712 46.5508 29.6831 46.5227 29.4917 46.5566C29.3596 46.58 29.2347 46.6406 29.1183 46.7364C29.0009 46.8321 28.8668 47.0126 28.7157 47.2753L28.7606 46.7622ZM17.0801 47.5563L18.6231 49.9408L18.4496 51.9236L19.0602 51.8155L19.2337 49.8328L21.3122 46.8082L20.6006 46.934L19.5858 48.4687C19.3613 48.8101 19.1694 49.1155 19.0092 49.3851C18.8874 49.146 18.7547 48.9097 18.61 48.6757L17.8229 47.425L17.0801 47.5563ZM25.3171 50.7846C25.5397 50.7453 25.7514 50.6712 25.9526 50.5628C26.1526 50.4534 26.3657 50.2902 26.5923 50.0719C26.5945 50.2294 26.621 50.362 26.6686 50.4704L27.2608 50.3658C27.2014 50.2486 27.1648 50.121 27.1536 49.9835C27.1411 49.8474 27.1589 49.5115 27.2057 48.9762L27.2728 48.2098C27.295 47.9546 27.3009 47.7799 27.2911 47.685C27.2706 47.5331 27.2238 47.4137 27.149 47.3248C27.0733 47.2363 26.9496 47.1746 26.7771 47.1373C26.6045 47.1012 26.3765 47.1074 26.0906 47.1578C25.8025 47.2089 25.5464 47.2938 25.3212 47.4119C25.096 47.53 24.9183 47.6742 24.7902 47.8429C24.6624 48.0103 24.5626 48.2199 24.4911 48.4687L25.038 48.4482C25.1203 48.1963 25.2285 48.0121 25.3636 47.8949C25.4999 47.7774 25.7007 47.6958 25.9672 47.6487C26.2521 47.5983 26.4627 47.6244 26.5951 47.7297C26.6942 47.8055 26.7336 47.9617 26.713 48.1961C26.7112 48.2168 26.7057 48.2672 26.6968 48.3458C26.474 48.4616 26.1308 48.5866 25.6678 48.7232C25.4408 48.7902 25.2707 48.8491 25.1573 48.8981C25.002 48.9676 24.8611 49.0547 24.7323 49.1591C24.6046 49.2632 24.4972 49.3906 24.411 49.541C24.3239 49.6916 24.2739 49.8497 24.2593 50.0166C24.2346 50.2988 24.3133 50.5146 24.494 50.6617C24.6757 50.8089 24.9496 50.8496 25.3171 50.7846ZM23.75 49.9832L23.1707 50.0137C23.0633 50.272 22.9318 50.4691 22.775 50.6053C22.618 50.7424 22.4356 50.8295 22.2284 50.866C21.9487 50.9157 21.7252 50.8573 21.5557 50.6919C21.3858 50.5277 21.3064 50.2607 21.3187 49.8914L23.8125 49.4505C23.8207 49.3826 23.8262 49.3311 23.8292 49.2962C23.8781 48.7371 23.7743 48.3272 23.5175 48.0689C23.2617 47.8104 22.9099 47.7202 22.4628 47.7993C22.0005 47.8809 21.6114 48.1054 21.2936 48.4718C20.977 48.8378 20.7931 49.3061 20.7432 49.8773C20.6949 50.4288 20.8004 50.8319 21.0607 51.0864C21.32 51.341 21.6946 51.425 22.1838 51.3385C22.5718 51.27 22.8995 51.1176 23.1666 50.8824C23.4326 50.6466 23.6272 50.3472 23.75 49.9832ZM23.2586 49.0826L21.3912 49.4127C21.4365 49.1138 21.5549 48.8601 21.7478 48.6522C21.9407 48.4442 22.1676 48.3172 22.4277 48.2712C22.7147 48.2204 22.9394 48.2902 23.1006 48.4796C23.2054 48.6005 23.2586 48.8026 23.2586 49.0826ZM26.6575 48.7962C26.4436 48.9187 26.1287 49.0452 25.7128 49.1777C25.4765 49.2528 25.3078 49.3203 25.2083 49.3796C25.1079 49.4393 25.0272 49.5147 24.9684 49.6067C24.9085 49.6978 24.8737 49.793 24.8649 49.8932C24.8515 50.0469 24.8984 50.1643 25.0034 50.2466C25.1085 50.3278 25.2718 50.3494 25.492 50.3105C25.7103 50.2718 25.909 50.1895 26.0874 50.0624C26.2657 49.9353 26.4031 49.7804 26.4974 49.5982C26.57 49.4578 26.6168 49.2604 26.6389 49.0076L26.6575 48.7962Z" fill="#322073"/>
</g>
<defs>
<linearGradient id="paint0_linear_103_2174" x1="20.2139" y1="15.9188" x2="61.6773" y2="67.0812" gradientUnits="userSpaceOnUse">
<stop stop-color="#0091CF"/>
<stop offset="0.631" stop-color="#42A97E"/>
<stop offset="1" stop-color="#7ABB30"/>
</linearGradient>
<linearGradient id="paint1_linear_103_2174" x1="74.0363" y1="37.3901" x2="77.1727" y2="53.7559" gradientUnits="userSpaceOnUse">
<stop stop-color="#DED361"/>
<stop offset="0.561" stop-color="#DEC95E"/>
<stop offset="1" stop-color="#DCAD5C"/>
</linearGradient>
<linearGradient id="paint2_linear_103_2174" x1="74.0366" y1="37.3897" x2="77.1729" y2="53.7556" gradientUnits="userSpaceOnUse">
<stop stop-color="#DED361"/>
<stop offset="0.561" stop-color="#DEC95E"/>
<stop offset="1" stop-color="#DCAD5C"/>
</linearGradient>
<linearGradient id="paint3_linear_103_2174" x1="74.0369" y1="37.39" x2="77.1733" y2="53.7559" gradientUnits="userSpaceOnUse">
<stop stop-color="#DED361"/>
<stop offset="0.561" stop-color="#DEC95E"/>
<stop offset="1" stop-color="#DCAD5C"/>
</linearGradient>
<clipPath id="clip0_103_2174">
<rect width="83" height="83" fill="white"/>
</clipPath>
</defs>
</svg>
